<svg width="1440" height="1024" viewBox="0 0 1440 1024" fill="none" xmlns="http://www.w3.org/2000/svg">
  <rect width="1440" height="1024" fill="#F5F1EA"/>
  <rect x="32" y="24" width="1376" height="64" rx="28" fill="#FBFAF7" stroke="#D8D2C7"/>
  <text x="56" y="63" font-family="Helvetica, Arial, sans-serif" font-size="18" letter-spacing="2" fill="#6F7584">OPERATIONAL SHELL</text>
  <rect x="1180" y="36" width="196" height="40" rx="20" fill="#FBFAF7" stroke="#D8D2C7"/>
  <text x="1210" y="61" font-family="Helvetica, Arial, sans-serif" font-size="18" font-weight="700" fill="#1D2739">xid11185 Logout</text>

  <rect x="32" y="120" width="360" height="872" rx="28" fill="#FBFAF7" stroke="#D8D2C7"/>
  <text x="56" y="170" font-family="Georgia, serif" font-size="44" font-weight="700" fill="#1D2739">Audit Logs</text>
  <text x="56" y="208" font-family="Helvetica, Arial, sans-serif" font-size="22" fill="#6F7584">Context and navigation stay left.</text>
  <rect x="56" y="236" width="132" height="32" rx="16" fill="#EEF5EE" stroke="#CFE3CF"/>
  <text x="122" y="257" text-anchor="middle" font-family="Helvetica, Arial, sans-serif" font-size="15" fill="#1D2739">active</text>
  <rect x="200" y="236" width="156" height="32" rx="16" fill="#EEF1F4" stroke="#D8DDE5"/>
  <text x="278" y="257" text-anchor="middle" font-family="Helvetica, Arial, sans-serif" font-size="15" fill="#1D2739">backend guarded</text>

  <rect x="56" y="300" width="312" height="132" rx="24" fill="#FFFFFF" stroke="#D8D2C7"/>
  <text x="80" y="340" font-family="Helvetica, Arial, sans-serif" font-size="16" letter-spacing="2" fill="#6F7584">SESSION</text>
  <text x="80" y="384" font-family="Helvetica, Arial, sans-serif" font-size="28" font-weight="700" fill="#1D2739">xid11185</text>
  <text x="80" y="416" font-family="Helvetica, Arial, sans-serif" font-size="22" fill="#6F7584">ptportugal</text>

  <rect x="56" y="456" width="312" height="108" rx="24" fill="#FFFFFF" stroke="#D8D2C7"/>
  <text x="80" y="496" font-family="Helvetica, Arial, sans-serif" font-size="16" letter-spacing="2" fill="#6F7584">MODULES</text>
  <text x="80" y="534" font-family="Helvetica, Arial, sans-serif" font-size="26" font-weight="700" fill="#1D2739">Audit Logs</text>
  <text x="80" y="602" font-family="Helvetica, Arial, sans-serif" font-size="26" fill="#6F7584">SIGRA</text>

  <rect x="56" y="592" width="312" height="144" rx="24" fill="#FFFFFF" stroke="#D8D2C7"/>
  <text x="80" y="632" font-family="Helvetica, Arial, sans-serif" font-size="16" letter-spacing="2" fill="#6F7584">TIMERS</text>
  <text x="80" y="676" font-family="Helvetica, Arial, sans-serif" font-size="24" fill="#1D2739">Timeout 28800s</text>
  <text x="80" y="714" font-family="Helvetica, Arial, sans-serif" font-size="24" fill="#1D2739">Keep-alive 300s</text>

  <rect x="424" y="120" width="984" height="430" rx="28" fill="#FBFAF7" stroke="#D8D2C7"/>
  <text x="456" y="168" font-family="Helvetica, Arial, sans-serif" font-size="16" letter-spacing="2" fill="#6F7584">QUERY</text>
  <text x="456" y="224" font-family="Georgia, serif" font-size="54" font-weight="700" fill="#1D2739">Query by environment and ID</text>
  <rect x="456" y="260" width="460" height="74" rx="20" fill="#FFFFFF" stroke="#D8D2C7"/>
  <text x="480" y="305" font-family="Helvetica, Arial, sans-serif" font-size="28" fill="#1D2739">Production</text>
  <rect x="932" y="260" width="444" height="74" rx="20" fill="#FFFFFF" stroke="#D8D2C7"/>
  <text x="956" y="305" font-family="Helvetica, Arial, sans-serif" font-size="28" fill="#1D2739">NETQ</text>
  <rect x="456" y="360" width="920" height="74" rx="20" fill="#FFFFFF" stroke="#D8D2C7"/>
  <text x="480" y="405" font-family="Helvetica, Arial, sans-serif" font-size="28" fill="#6F7584">Request identifier</text>
  <rect x="456" y="458" width="920" height="52" rx="26" fill="#111827"/>
  <text x="916" y="492" text-anchor="middle" font-family="Helvetica, Arial, sans-serif" font-size="24" font-weight="700" fill="#FFFFFF">Run query</text>

  <rect x="424" y="582" width="984" height="410" rx="28" fill="#FBFAF7" stroke="#D8D2C7"/>
  <text x="456" y="630" font-family="Helvetica, Arial, sans-serif" font-size="16" letter-spacing="2" fill="#6F7584">RESULTS AREA</text>
  <text x="456" y="690" font-family="Georgia, serif" font-size="48" font-weight="700" fill="#1D2739">No query executed yet</text>
  <text x="456" y="736" font-family="Helvetica, Arial, sans-serif" font-size="24" fill="#6F7584">The right column stays dedicated to active work and response details.</text>
  <rect x="456" y="780" width="436" height="168" rx="24" fill="#FFFFFF" stroke="#D8D2C7"/>
  <rect x="908" y="780" width="468" height="168" rx="24" fill="#FFFFFF" stroke="#D8D2C7"/>
  <text x="488" y="834" font-family="Helvetica, Arial, sans-serif" font-size="16" letter-spacing="2" fill="#6F7584">LEFT DETAIL</text>
  <text x="940" y="834" font-family="Helvetica, Arial, sans-serif" font-size="16" letter-spacing="2" fill="#6F7584">RIGHT DETAIL</text>
</svg>
