<svg width="1440" height="1024" viewBox="0 0 1440 1024" fill="none" xmlns="http://www.w3.org/2000/svg">
  <rect width="1440" height="1024" fill="#EFE9DE"/>
  <rect x="0" y="0" width="1440" height="1024" fill="url(#bgA)"/>
  <circle cx="186" cy="180" r="220" fill="#7EBFAD" fill-opacity="0.18"/>
  <circle cx="1270" cy="124" r="190" fill="#182029" fill-opacity="0.08"/>
  <rect x="140" y="104" width="1160" height="816" rx="36" fill="#FCFAF6" stroke="#D9D1C3"/>
  <rect x="796" y="104" width="504" height="816" rx="36" fill="#182029"/>
  <text x="220" y="212" fill="#6A726C" font-family="Arial, sans-serif" font-size="16" letter-spacing="3">NETQ SUPPORT TOOLS</text>
  <text x="220" y="298" fill="#12171D" font-family="Georgia, serif" font-size="74" font-weight="700">Sign in</text>
  <text x="220" y="350" fill="#12171D" font-family="Georgia, serif" font-size="74" font-weight="700">with less noise.</text>
  <text x="220" y="418" fill="#5B646F" font-family="Arial, sans-serif" font-size="24">A focused entry screen for operators: domain, username, password,</text>
  <text x="220" y="454" fill="#5B646F" font-family="Arial, sans-serif" font-size="24">clear feedback, and nothing that competes with the main action.</text>
  <rect x="220" y="530" width="420" height="78" rx="18" fill="#FFFFFF" stroke="#D9D1C3"/>
  <text x="244" y="560" fill="#6A726C" font-family="Arial, sans-serif" font-size="14" letter-spacing="2">DOMAIN</text>
  <text x="244" y="589" fill="#12171D" font-family="Arial, sans-serif" font-size="24">PTPORTUGAL</text>
  <path d="M608 562L624 578L640 562" stroke="#6A726C" stroke-width="3" stroke-linecap="round" stroke-linejoin="round"/>
  <rect x="220" y="628" width="420" height="78" rx="18" fill="#FFFFFF" stroke="#D9D1C3"/>
  <text x="244" y="658" fill="#6A726C" font-family="Arial, sans-serif" font-size="14" letter-spacing="2">USERNAME</text>
  <text x="244" y="687" fill="#A0A7AE" font-family="Arial, sans-serif" font-size="24">username</text>
  <rect x="220" y="726" width="420" height="78" rx="18" fill="#FFFFFF" stroke="#D9D1C3"/>
  <text x="244" y="756" fill="#6A726C" font-family="Arial, sans-serif" font-size="14" letter-spacing="2">PASSWORD</text>
  <text x="244" y="785" fill="#A0A7AE" font-family="Arial, sans-serif" font-size="24">••••••••••••</text>
  <rect x="220" y="836" width="240" height="64" rx="18" fill="#1F8A70"/>
  <text x="304" y="876" fill="#F7FBF9" font-family="Arial, sans-serif" font-size="22" font-weight="700">Login</text>
  <text x="872" y="204" fill="#8FA39A" font-family="Arial, sans-serif" font-size="14" letter-spacing="3">OPTION A</text>
  <text x="872" y="282" fill="#F5EFE7" font-family="Georgia, serif" font-size="52" font-weight="700">Quiet split</text>
  <text x="872" y="330" fill="#C7D0CC" font-family="Arial, sans-serif" font-size="22">A strong but restrained companion panel.</text>
  <rect x="872" y="420" width="352" height="94" rx="24" fill="#202A33" stroke="#30404D"/>
  <text x="900" y="458" fill="#8FA39A" font-family="Arial, sans-serif" font-size="13" letter-spacing="2">WHY IT WORKS</text>
  <text x="900" y="491" fill="#F5EFE7" font-family="Arial, sans-serif" font-size="22">Form-first hierarchy</text>
  <rect x="872" y="540" width="352" height="94" rx="24" fill="#202A33" stroke="#30404D"/>
  <text x="900" y="578" fill="#8FA39A" font-family="Arial, sans-serif" font-size="13" letter-spacing="2">COPY</text>
  <text x="900" y="611" fill="#F5EFE7" font-family="Arial, sans-serif" font-size="22">Only one support sentence</text>
  <rect x="872" y="660" width="352" height="94" rx="24" fill="#202A33" stroke="#30404D"/>
  <text x="900" y="698" fill="#8FA39A" font-family="Arial, sans-serif" font-size="13" letter-spacing="2">VISUAL TONE</text>
  <text x="900" y="731" fill="#F5EFE7" font-family="Arial, sans-serif" font-size="22">Calm, premium, operational</text>
  <defs>
    <linearGradient id="bgA" x1="220" y1="0" x2="1180" y2="1024" gradientUnits="userSpaceOnUse">
      <stop stop-color="#F7F3EC"/>
      <stop offset="1" stop-color="#EAE2D4"/>
    </linearGradient>
  </defs>
</svg>
