<svg width="1440" height="1024" viewBox="0 0 1440 1024" fill="none" xmlns="http://www.w3.org/2000/svg">
  <rect width="1440" height="1024" fill="#DFE5EA"/>
  <rect width="1440" height="1024" fill="url(#bgInk)"/>
  <circle cx="1108" cy="214" r="280" fill="#A9BBC6" fill-opacity="0.35"/>
  <circle cx="250" cy="850" r="260" fill="#2D5B7B" fill-opacity="0.10"/>
  <rect x="360" y="120" width="720" height="784" rx="40" fill="#F7FAFC" stroke="#BFC9D2"/>
  <text x="720" y="228" text-anchor="middle" fill="#607181" font-family="Arial, sans-serif" font-size="15" letter-spacing="4">NETQ OPERATIONS</text>
  <text x="720" y="320" text-anchor="middle" fill="#0F1720" font-family="Georgia, serif" font-size="78" font-weight="700">Single card login</text>
  <text x="720" y="374" text-anchor="middle" fill="#4F6070" font-family="Arial, sans-serif" font-size="24">Cool slate palette with deeper contrast and a more technical mood.</text>
  <rect x="500" y="458" width="440" height="80" rx="20" fill="#F2F6F9" stroke="#BFC9D2"/>
  <text x="528" y="489" fill="#607181" font-family="Arial, sans-serif" font-size="14" letter-spacing="2">DOMAIN</text>
  <text x="528" y="519" fill="#0F1720" font-family="Arial, sans-serif" font-size="24">PTPORTUGAL</text>
  <path d="M888 490L904 506L920 490" stroke="#607181" stroke-width="3" stroke-linecap="round" stroke-linejoin="round"/>
  <rect x="500" y="558" width="440" height="80" rx="20" fill="#F2F6F9" stroke="#BFC9D2"/>
  <text x="528" y="589" fill="#607181" font-family="Arial, sans-serif" font-size="14" letter-spacing="2">USERNAME</text>
  <text x="528" y="619" fill="#93A2AF" font-family="Arial, sans-serif" font-size="24">username</text>
  <rect x="500" y="658" width="440" height="80" rx="20" fill="#F2F6F9" stroke="#BFC9D2"/>
  <text x="528" y="689" fill="#607181" font-family="Arial, sans-serif" font-size="14" letter-spacing="2">PASSWORD</text>
  <text x="528" y="719" fill="#93A2AF" font-family="Arial, sans-serif" font-size="24">••••••••••••</text>
  <rect x="500" y="770" width="440" height="70" rx="20" fill="#2F6B8A"/>
  <text x="720" y="814" text-anchor="middle" fill="#F5FAFD" font-family="Arial, sans-serif" font-size="23" font-weight="700">Login</text>
  <rect x="500" y="868" width="440" height="1" fill="#D3DCE3"/>
  <text x="720" y="896" text-anchor="middle" fill="#6D7D8A" font-family="Arial, sans-serif" font-size="18">Palette B: cool, structured, and slightly more enterprise/technical.</text>
  <defs>
    <linearGradient id="bgInk" x1="0" y1="0" x2="1440" y2="1024" gradientUnits="userSpaceOnUse">
      <stop stop-color="#EEF3F7"/>
      <stop offset="1" stop-color="#DCE4EB"/>
    </linearGradient>
  </defs>
</svg>
