<svg width="1440" height="1024" viewBox="0 0 1440 1024" fill="none" xmlns="http://www.w3.org/2000/svg">
  <rect width="1440" height="1024" fill="#F4E9E1"/>
  <rect width="1440" height="1024" fill="url(#bgTerra)"/>
  <circle cx="1120" cy="220" r="280" fill="#E8CFC1" fill-opacity="0.72"/>
  <circle cx="220" cy="848" r="260" fill="#B55D42" fill-opacity="0.10"/>
  <rect x="360" y="120" width="720" height="784" rx="40" fill="#FFFDFC" stroke="#E0CBBF"/>
  <text x="720" y="228" text-anchor="middle" fill="#94715F" font-family="Arial, sans-serif" font-size="15" letter-spacing="4">NETQ OPERATIONS</text>
  <text x="720" y="320" text-anchor="middle" fill="#201714" font-family="Georgia, serif" font-size="78" font-weight="700">Single card login</text>
  <text x="720" y="374" text-anchor="middle" fill="#7A6055" font-family="Arial, sans-serif" font-size="24">A warmer, bolder palette with more character but still a restrained layout.</text>
  <rect x="500" y="458" width="440" height="80" rx="20" fill="#FFF8F4" stroke="#E0CBBF"/>
  <text x="528" y="489" fill="#94715F" font-family="Arial, sans-serif" font-size="14" letter-spacing="2">DOMAIN</text>
  <text x="528" y="519" fill="#201714" font-family="Arial, sans-serif" font-size="24">PTPORTUGAL</text>
  <path d="M888 490L904 506L920 490" stroke="#94715F" stroke-width="3" stroke-linecap="round" stroke-linejoin="round"/>
  <rect x="500" y="558" width="440" height="80" rx="20" fill="#FFF8F4" stroke="#E0CBBF"/>
  <text x="528" y="589" fill="#94715F" font-family="Arial, sans-serif" font-size="14" letter-spacing="2">USERNAME</text>
  <text x="528" y="619" fill="#B49C90" font-family="Arial, sans-serif" font-size="24">username</text>
  <rect x="500" y="658" width="440" height="80" rx="20" fill="#FFF8F4" stroke="#E0CBBF"/>
  <text x="528" y="689" fill="#94715F" font-family="Arial, sans-serif" font-size="14" letter-spacing="2">PASSWORD</text>
  <text x="528" y="719" fill="#B49C90" font-family="Arial, sans-serif" font-size="24">••••••••••••</text>
  <rect x="500" y="770" width="440" height="70" rx="20" fill="#B95D40"/>
  <text x="720" y="814" text-anchor="middle" fill="#FFF8F5" font-family="Arial, sans-serif" font-size="23" font-weight="700">Login</text>
  <rect x="500" y="868" width="440" height="1" fill="#E9D8D0"/>
  <text x="720" y="896" text-anchor="middle" fill="#8A6B5D" font-family="Arial, sans-serif" font-size="18">Palette C: warmer and more distinctive, with a stronger accent color.</text>
  <defs>
    <linearGradient id="bgTerra" x1="0" y1="0" x2="1440" y2="1024" gradientUnits="userSpaceOnUse">
      <stop stop-color="#FAF1EB"/>
      <stop offset="1" stop-color="#ECD9CF"/>
    </linearGradient>
  </defs>
</svg>
