<svg width="1440" height="1024" viewBox="0 0 1440 1024" fill="none" xmlns="http://www.w3.org/2000/svg">
  <rect width="1440" height="1024" fill="#EEF2F7"/>
  <rect width="1440" height="1024" fill="url(#bg3)"/>
  <circle cx="240" cy="182" r="210" fill="#D7E0EA"/>
  <circle cx="1180" cy="848" r="250" fill="#D1DBE6"/>
  <rect x="424" y="154" width="592" height="716" rx="34" fill="rgba(255,255,255,0.72)" stroke="#E5E7EB"/>
  <text x="720" y="250" text-anchor="middle" fill="#6B7280" font-family="Arial, sans-serif" font-size="14" letter-spacing="4">NETQ SUPPORT TOOLS</text>
  <text x="720" y="336" text-anchor="middle" fill="#111827" font-family="Georgia, serif" font-size="72" font-weight="700">Sign in</text>
  <text x="720" y="382" text-anchor="middle" fill="#6B7280" font-family="Arial, sans-serif" font-size="22">Soft atmosphere, same minimal hierarchy.</text>
  <rect x="514" y="452" width="412" height="78" rx="20" fill="rgba(255,255,255,0.82)" stroke="#E5E7EB"/>
  <text x="542" y="483" fill="#6B7280" font-family="Arial, sans-serif" font-size="13" letter-spacing="2">DOMAIN</text>
  <text x="542" y="513" fill="#111827" font-family="Arial, sans-serif" font-size="23">PTPORTUGAL</text>
  <path d="M878 483L894 499L910 483" stroke="#6B7280" stroke-width="3" stroke-linecap="round" stroke-linejoin="round"/>
  <rect x="514" y="550" width="412" height="78" rx="20" fill="rgba(255,255,255,0.82)" stroke="#E5E7EB"/>
  <text x="542" y="581" fill="#6B7280" font-family="Arial, sans-serif" font-size="13" letter-spacing="2">USERNAME</text>
  <text x="542" y="611" fill="#9CA3AF" font-family="Arial, sans-serif" font-size="23">username</text>
  <rect x="514" y="648" width="412" height="78" rx="20" fill="rgba(255,255,255,0.82)" stroke="#E5E7EB"/>
  <text x="542" y="679" fill="#6B7280" font-family="Arial, sans-serif" font-size="13" letter-spacing="2">PASSWORD</text>
  <text x="542" y="709" fill="#9CA3AF" font-family="Arial, sans-serif" font-size="23">••••••••••••</text>
  <rect x="514" y="770" width="412" height="68" rx="20" fill="#111827"/>
  <text x="720" y="813" text-anchor="middle" fill="white" font-family="Arial, sans-serif" font-size="23" font-weight="700">Login</text>
  <text x="720" y="892" text-anchor="middle" fill="#9CA3AF" font-family="Arial, sans-serif" font-size="18">Example 3: soft glass card</text>
  <defs>
    <linearGradient id="bg3" x1="0" y1="0" x2="1440" y2="1024" gradientUnits="userSpaceOnUse">
      <stop stop-color="#F6F8FB"/>
      <stop offset="1" stop-color="#E7EDF4"/>
    </linearGradient>
  </defs>
</svg>
