<svg width="1440" height="1024" viewBox="0 0 1440 1024" fill="none" xmlns="http://www.w3.org/2000/svg">
  <rect width="1440" height="1024" fill="#F4F6F8"/>
  <rect x="100" y="72" width="1240" height="880" rx="40" fill="#FCFCFD" stroke="#E5E7EB"/>
  <rect x="100" y="72" width="520" height="880" rx="40" fill="#111827"/>
  <path d="M620 72H580V952H620V72Z" fill="#111827"/>
  <text x="180" y="176" fill="#9CA3AF" font-family="Arial, sans-serif" font-size="14" letter-spacing="4">NETQ SUPPORT TOOLS</text>
  <text x="180" y="284" fill="white" font-family="Georgia, serif" font-size="74" font-weight="700">Operational</text>
  <text x="180" y="354" fill="white" font-family="Georgia, serif" font-size="74" font-weight="700">clarity.</text>
  <text x="180" y="430" fill="#C7CDD4" font-family="Arial, sans-serif" font-size="24">A restrained editorial layout: one statement on the left,</text>
  <text x="180" y="466" fill="#C7CDD4" font-family="Arial, sans-serif" font-size="24">one clear form on the right.</text>
  <circle cx="476" cy="792" r="74" fill="#1F2937"/>
  <circle cx="424" cy="738" r="22" fill="#253142"/>
  <text x="876" y="212" text-anchor="middle" fill="#6B7280" font-family="Arial, sans-serif" font-size="14" letter-spacing="4">AUTHORIZED ACCESS</text>
  <text x="876" y="300" text-anchor="middle" fill="#111827" font-family="Georgia, serif" font-size="70" font-weight="700">Sign in</text>
  <rect x="670" y="388" width="412" height="78" rx="20" fill="white" stroke="#E5E7EB"/>
  <text x="698" y="419" fill="#6B7280" font-family="Arial, sans-serif" font-size="13" letter-spacing="2">DOMAIN</text>
  <text x="698" y="449" fill="#111827" font-family="Arial, sans-serif" font-size="23">PTPORTUGAL</text>
  <path d="M1034 419L1050 435L1066 419" stroke="#6B7280" stroke-width="3" stroke-linecap="round" stroke-linejoin="round"/>
  <rect x="670" y="486" width="412" height="78" rx="20" fill="white" stroke="#E5E7EB"/>
  <text x="698" y="517" fill="#6B7280" font-family="Arial, sans-serif" font-size="13" letter-spacing="2">USERNAME</text>
  <text x="698" y="547" fill="#9CA3AF" font-family="Arial, sans-serif" font-size="23">username</text>
  <rect x="670" y="584" width="412" height="78" rx="20" fill="white" stroke="#E5E7EB"/>
  <text x="698" y="615" fill="#6B7280" font-family="Arial, sans-serif" font-size="13" letter-spacing="2">PASSWORD</text>
  <text x="698" y="645" fill="#9CA3AF" font-family="Arial, sans-serif" font-size="23">••••••••••••</text>
  <rect x="670" y="704" width="412" height="68" rx="20" fill="#111827"/>
  <text x="876" y="747" text-anchor="middle" fill="white" font-family="Arial, sans-serif" font-size="23" font-weight="700">Login</text>
  <text x="876" y="826" text-anchor="middle" fill="#9CA3AF" font-family="Arial, sans-serif" font-size="18">Example 2: editorial split layout</text>
</svg>
